<mxfile host="app.diagrams.net" modified="2023-05-10T16:20:42.595Z" agent="Mozilla/5.0 (X11; Ubuntu; Linux x86_64; rv:109.0) Gecko/20100101 Firefox/112.0" etag="lWQ-bJB8jEzERFJdfZMS" version="21.1.4" type="github">
  <diagram name="Page-1" id="o8B_hZwBmOEvkAfIit0n">
    <mxGraphModel dx="1360" dy="795" grid="1" gridSize="10" guides="1" tooltips="1" connect="1" arrows="1" fold="1" page="1" pageScale="1" pageWidth="850" pageHeight="1100" math="0" shadow="0">
      <root>
        <mxCell id="0" />
        <mxCell id="1" parent="0" />
        <mxCell id="Lc_eIl_vocquqeZnEwWS-3" value="" style="edgeStyle=orthogonalEdgeStyle;rounded=0;orthogonalLoop=1;jettySize=auto;html=1;" edge="1" parent="1" source="Lc_eIl_vocquqeZnEwWS-1" target="Lc_eIl_vocquqeZnEwWS-2">
          <mxGeometry relative="1" as="geometry" />
        </mxCell>
        <mxCell id="Lc_eIl_vocquqeZnEwWS-4" value="user clicks &quot;submit on prem processing&quot; button" style="edgeLabel;html=1;align=center;verticalAlign=middle;resizable=0;points=[];" vertex="1" connectable="0" parent="Lc_eIl_vocquqeZnEwWS-3">
          <mxGeometry x="-0.1238" y="1" relative="1" as="geometry">
            <mxPoint as="offset" />
          </mxGeometry>
        </mxCell>
        <mxCell id="Lc_eIl_vocquqeZnEwWS-10" style="edgeStyle=orthogonalEdgeStyle;rounded=0;orthogonalLoop=1;jettySize=auto;html=1;exitX=0.5;exitY=1;exitDx=0;exitDy=0;entryX=0;entryY=0.914;entryDx=0;entryDy=0;entryPerimeter=0;" edge="1" parent="1" source="Lc_eIl_vocquqeZnEwWS-1" target="Lc_eIl_vocquqeZnEwWS-6">
          <mxGeometry relative="1" as="geometry">
            <Array as="points">
              <mxPoint x="220" y="365" />
              <mxPoint x="220" y="673" />
            </Array>
          </mxGeometry>
        </mxCell>
        <mxCell id="Lc_eIl_vocquqeZnEwWS-11" value="send data and instructions" style="edgeLabel;html=1;align=center;verticalAlign=middle;resizable=0;points=[];" vertex="1" connectable="0" parent="Lc_eIl_vocquqeZnEwWS-10">
          <mxGeometry x="0.0044" y="2" relative="1" as="geometry">
            <mxPoint as="offset" />
          </mxGeometry>
        </mxCell>
        <mxCell id="Lc_eIl_vocquqeZnEwWS-1" value="Holo edit desktop application" style="rounded=0;whiteSpace=wrap;html=1;resizeHeight=1;fixedWidth=1;autosize=1;" vertex="1" parent="1">
          <mxGeometry x="190" y="325" width="120" height="40" as="geometry" />
        </mxCell>
        <mxCell id="Lc_eIl_vocquqeZnEwWS-7" value="" style="edgeStyle=orthogonalEdgeStyle;rounded=0;orthogonalLoop=1;jettySize=auto;html=1;" edge="1" parent="1" source="Lc_eIl_vocquqeZnEwWS-2" target="Lc_eIl_vocquqeZnEwWS-6">
          <mxGeometry relative="1" as="geometry" />
        </mxCell>
        <mxCell id="Lc_eIl_vocquqeZnEwWS-2" value="&lt;div&gt;intermediary desktop script&lt;/div&gt;&lt;div&gt;&lt;br&gt;&lt;/div&gt;&lt;div&gt;Performs an authenticated sign in to the login node&lt;/div&gt;&lt;div&gt;&lt;br&gt;&lt;/div&gt;&lt;div&gt;translates the holo edit applications resource requests into a slurm sbatch submission running the provided executables from the holo edit company&lt;br&gt;&lt;/div&gt;" style="rounded=0;whiteSpace=wrap;html=1;resizeHeight=1;fixedWidth=1;autosize=1;" vertex="1" parent="1">
          <mxGeometry x="630" y="230" width="120" height="230" as="geometry" />
        </mxCell>
        <mxCell id="Lc_eIl_vocquqeZnEwWS-5" value="using HPC VPN for direct communication with login node and compute nodes" style="rounded=0;whiteSpace=wrap;html=1;resizeHeight=1;fixedWidth=1;autosize=1;" vertex="1" parent="1">
          <mxGeometry x="170" y="160" width="120" height="70" as="geometry" />
        </mxCell>
        <mxCell id="Lc_eIl_vocquqeZnEwWS-8" style="edgeStyle=orthogonalEdgeStyle;rounded=0;orthogonalLoop=1;jettySize=auto;html=1;exitX=0;exitY=0.5;exitDx=0;exitDy=0;entryX=0.5;entryY=1;entryDx=0;entryDy=0;" edge="1" parent="1" source="Lc_eIl_vocquqeZnEwWS-6" target="Lc_eIl_vocquqeZnEwWS-1">
          <mxGeometry relative="1" as="geometry" />
        </mxCell>
        <mxCell id="Lc_eIl_vocquqeZnEwWS-9" value="uses address information to notify desktop it&#39;s ready to receive data and compute instructions" style="edgeLabel;html=1;align=center;verticalAlign=middle;resizable=0;points=[];" vertex="1" connectable="0" parent="Lc_eIl_vocquqeZnEwWS-8">
          <mxGeometry x="-0.1924" y="-4" relative="1" as="geometry">
            <mxPoint as="offset" />
          </mxGeometry>
        </mxCell>
        <mxCell id="Lc_eIl_vocquqeZnEwWS-13" style="edgeStyle=orthogonalEdgeStyle;rounded=0;orthogonalLoop=1;jettySize=auto;html=1;exitX=0.5;exitY=1;exitDx=0;exitDy=0;entryX=0;entryY=1;entryDx=0;entryDy=0;" edge="1" parent="1" source="Lc_eIl_vocquqeZnEwWS-6" target="Lc_eIl_vocquqeZnEwWS-1">
          <mxGeometry relative="1" as="geometry">
            <mxPoint x="160" y="760" as="targetPoint" />
          </mxGeometry>
        </mxCell>
        <mxCell id="Lc_eIl_vocquqeZnEwWS-14" value="return processing results" style="edgeLabel;html=1;align=center;verticalAlign=middle;resizable=0;points=[];" vertex="1" connectable="0" parent="Lc_eIl_vocquqeZnEwWS-13">
          <mxGeometry x="-0.0824" y="-4" relative="1" as="geometry">
            <mxPoint as="offset" />
          </mxGeometry>
        </mxCell>
        <mxCell id="Lc_eIl_vocquqeZnEwWS-6" value="&lt;div&gt;compute node &lt;br&gt;&lt;/div&gt;&lt;div&gt;&lt;br&gt;&lt;/div&gt;&lt;div&gt;comes online and receives the address of the desktop application + some sort of configuration information about the processing to be done&lt;br&gt;&lt;/div&gt;" style="rounded=0;whiteSpace=wrap;html=1;resizeHeight=1;fixedWidth=1;autosize=1;" vertex="1" parent="1">
          <mxGeometry x="790" y="545" width="120" height="140" as="geometry" />
        </mxCell>
        <mxCell id="Lc_eIl_vocquqeZnEwWS-12" value="Imagined Holo edit workflow" style="rounded=0;whiteSpace=wrap;html=1;resizeHeight=1;fixedWidth=1;autosize=1;" vertex="1" parent="1">
          <mxGeometry x="50" y="65" width="120" height="40" as="geometry" />
        </mxCell>
      </root>
    </mxGraphModel>
  </diagram>
</mxfile>
